<svg xmlns="http://www.w3.org/2000/svg" version="1.1" xmlns:xlink="http://www.w3.org/1999/xlink" xmlns:svgjs="http://svgjs.com/svgjs" width="960.8083989501313" height="434.95538057742783"><svg version="1.1" viewBox="0.0 0.0 960.8083989501313 434.95538057742783" fill="none" stroke="none" stroke-linecap="square" stroke-miterlimit="10" xmlns:xlink="http://www.w3.org/1999/xlink" xmlns="http://www.w3.org/2000/svg"><clipPath id="SvgjsClipPath1000"><path d="m0 0l960.8084 0l0 434.95538l-960.8084 0l0 -434.95538z" clip-rule="nonzero"></path></clipPath><g clip-path="url(#p.0)"><path fill="#000000" fill-opacity="0.0" d="m0 0l960.8084 0l0 434.95538l-960.8084 0z" fill-rule="evenodd"></path><path fill="#cfe2f3" d="m0 321.35278l0 0c0 -61.925476 78.26204 -112.12599 174.80315 -112.12599l0 0c96.54112 0 174.80315 50.200516 174.80315 112.12599l0 0c0 61.925446 -78.262024 112.12598 -174.80315 112.12598l0 0c-96.54111 0 -174.80315 -50.20053 -174.80315 -112.12598z" fill-rule="evenodd"></path><path stroke="#000000" stroke-width="1.0" stroke-linejoin="round" stroke-linecap="butt" d="m0 321.35278l0 0c0 -61.925476 78.26204 -112.12599 174.80315 -112.12599l0 0c96.54112 0 174.80315 50.200516 174.80315 112.12599l0 0c0 61.925446 -78.262024 112.12598 -174.80315 112.12598l0 0c-96.54111 0 -174.80315 -50.20053 -174.80315 -112.12598z" fill-rule="evenodd"></path><path fill="#cfe2f3" d="m654.73895 321.35214l0 0c0 -41.269135 68.33472 -74.724396 152.62988 -74.724396l0 0c84.295166 0 152.62994 33.45526 152.62994 74.724396l0 0c0 41.269165 -68.33478 74.72443 -152.62994 74.72443l0 0c-84.295166 0 -152.62988 -33.45526 -152.62988 -74.72443z" fill-rule="evenodd"></path><path stroke="#000000" stroke-width="1.0" stroke-linejoin="round" stroke-linecap="butt" d="m654.73895 321.35214l0 0c0 -41.269135 68.33472 -74.724396 152.62988 -74.724396l0 0c84.295166 0 152.62994 33.45526 152.62994 74.724396l0 0c0 41.269165 -68.33478 74.72443 -152.62994 74.72443l0 0c-84.295166 0 -152.62988 -33.45526 -152.62988 -74.72443z" fill-rule="evenodd"></path><path fill="#cfe2f3" d="m191.98831 206.7559l0 0c0 -114.18813 146.56152 -206.7559 327.35434 -206.7559l0 0c180.79279 0 327.3543 92.56777 327.3543 206.7559l0 0c0 114.188126 -146.56152 206.7559 -327.3543 206.7559l0 0c-180.79282 0 -327.35434 -92.56778 -327.35434 -206.7559z" fill-rule="evenodd"></path><path stroke="#000000" stroke-width="1.0" stroke-linejoin="round" stroke-linecap="butt" d="m191.98831 206.7559l0 0c0 -114.18813 146.56152 -206.7559 327.35434 -206.7559l0 0c180.79279 0 327.3543 92.56777 327.3543 206.7559l0 0c0 114.188126 -146.56152 206.7559 -327.3543 206.7559l0 0c-180.79282 0 -327.35434 -92.56778 -327.35434 -206.7559z" fill-rule="evenodd"></path></g></svg><style>@media (prefers-color-scheme: light) { :root { filter: none; } }
</style></svg>